<svg width="108" height="74" viewBox="0 0 108 74" fill="none" xmlns="http://www.w3.org/2000/svg">
<path fill-rule="evenodd" clip-rule="evenodd" d="M87.8333 25L92.9326 33.4988L107.667 33.5V73.1667H51V33.5H65.7333L70.8333 25H87.8333ZM84.6232 30.6667H74.0378L68.9417 39.1667H56.6667V67.5H102V39.1638L89.724 39.1652L84.6232 30.6667ZM79.3333 39.1667C86.375 39.1667 92.0833 44.875 92.0833 51.9167C92.0833 58.9583 86.375 64.6667 79.3333 64.6667C72.2917 64.6667 66.5833 58.9583 66.5833 51.9167C66.5833 44.875 72.2917 39.1667 79.3333 39.1667ZM79.3333 44.8333C75.4213 44.8333 72.25 48.0047 72.25 51.9167C72.25 55.8287 75.4213 59 79.3333 59C83.2453 59 86.4167 55.8287 86.4167 51.9167C86.4167 48.0047 83.2453 44.8333 79.3333 44.8333ZM96.3333 42C97.8981 42 99.1667 43.2685 99.1667 44.8333C99.1667 46.3981 97.8981 47.6667 96.3333 47.6667C94.7685 47.6667 93.5 46.3981 93.5 44.8333C93.5 43.2685 94.7685 42 96.3333 42Z" fill="black"/>
<g clip-path="url(#clip0_0_1)">
<path d="M20.5357 37.3327C13.8161 37.3327 8.4032 42.7456 8.4032 49.4652C8.4032 50.0251 8.77647 50.3984 9.33643 50.3984H31.7349C32.2949 50.3984 32.6681 50.0251 32.6681 49.4652C32.6681 42.7456 27.2552 37.3327 20.5357 37.3327ZM10.2697 48.5319C10.8296 43.3056 15.1226 39.1993 20.5357 39.1993C25.9487 39.1993 30.335 43.3057 30.8017 48.5319H10.2697Z" fill="black"/>
<path d="M40.1343 48.5319H38.2678C38.0205 43.5871 35.7032 39.1665 32.1771 36.1025C32.1556 36.0764 32.1329 36.0508 32.1082 36.0261C32.0437 35.9616 31.9732 35.909 31.8994 35.8666C28.8085 33.2887 24.8375 31.733 20.5356 31.733C11.0162 31.733 3.27005 39.1992 2.80348 48.5318H0.937017C0.377056 48.5318 0.00378418 48.9051 0.00378418 49.4651V55.0647C0.00378418 55.6246 0.377056 55.9979 0.937017 55.9979H40.1343C40.6943 55.9979 41.0676 55.6246 41.0676 55.0647V49.4651C41.0676 48.9052 40.6943 48.5319 40.1343 48.5319ZM39.2011 54.1315H36.4013V53.1983C36.4013 52.6384 36.028 52.2651 35.4681 52.2651C34.9081 52.2651 34.5348 52.6384 34.5348 53.1983V54.1315H28.9352V53.1983C28.9352 52.6384 28.5619 52.2651 28.002 52.2651C27.442 52.2651 27.0687 52.6384 27.0687 53.1983V54.1315H21.4691V53.1983C21.4691 52.6384 21.0959 52.2651 20.5359 52.2651C19.9759 52.2651 19.6027 52.6384 19.6027 53.1983V54.1315H14.003V53.1983C14.003 52.6384 13.6298 52.2651 13.0698 52.2651C12.5099 52.2651 12.1366 52.6384 12.1366 53.1983V54.1315H6.53696V53.1983C6.53696 52.6384 6.16369 52.2651 5.60373 52.2651C5.04377 52.2651 4.6705 52.6384 4.6705 53.1983V54.1315H1.87069V50.3985H3.73726C4.29722 50.3985 4.6705 50.0252 4.6705 49.4653C4.6705 44.9363 6.56102 40.8551 9.59707 37.9664L10.5501 38.9194C10.7368 39.1061 10.9234 39.1994 11.2033 39.1994C11.4833 39.1994 11.67 39.1061 11.8566 38.9194C12.2299 38.5461 12.2299 37.9862 11.8566 37.6128L11.0126 36.7688C13.4313 34.953 16.3876 33.8136 19.6028 33.6277V34.533C19.6028 35.093 19.976 35.4662 20.536 35.4662C21.096 35.4662 21.4692 35.093 21.4692 34.533V33.6277C24.6844 33.8136 27.6407 34.9529 30.0594 36.7688L29.2154 37.6128C28.8421 37.9861 28.8421 38.546 29.2154 38.9194C29.4021 39.1061 29.5887 39.1994 29.8687 39.1994C30.1486 39.1994 30.3353 39.1061 30.5219 38.9194L31.4749 37.9664C34.511 40.8551 36.4015 44.9363 36.4015 49.4653C36.4015 50.0252 36.7748 50.3985 37.3347 50.3985H39.2013V54.1315H39.2011Z" fill="black"/>
<path d="M55.0667 0.00186157H43.8674C43.3075 0.00186157 42.9342 0.375133 42.9342 0.935095V55.0647C42.9342 55.6247 43.3075 55.9979 43.8674 55.9979H55.0667C55.6266 55.9979 55.9999 55.6247 55.9999 55.0647V0.935204C56 0.375242 55.6266 0.00186157 55.0667 0.00186157ZM54.1334 54.1316H44.8008V52.265H49.4672C50.0271 52.265 50.4004 51.8917 50.4004 51.3318C50.4004 50.7718 50.0271 50.3985 49.4672 50.3985H44.8008V47.5987H47.6006C48.1605 47.5987 48.5338 47.2254 48.5338 46.6655C48.5338 46.1055 48.1605 45.7323 47.6006 45.7323H44.8008V42.9324H49.4672C50.0271 42.9324 50.4004 42.5592 50.4004 41.9992C50.4004 41.4393 50.0271 41.066 49.4672 41.066H44.8008V38.2662H47.6006C48.1605 38.2662 48.5338 37.8929 48.5338 37.3329C48.5338 36.773 48.1605 36.3997 47.6006 36.3997H44.8008V33.5999H49.4672C50.0271 33.5999 50.4004 33.2266 50.4004 32.6667C50.4004 32.1067 50.0271 31.7334 49.4672 31.7334H44.8008V28.9336H47.6006C48.1605 28.9336 48.5338 28.5603 48.5338 28.0004C48.5338 27.4404 48.1605 27.0672 47.6006 27.0672H44.8008V24.2673H49.4672C50.0271 24.2673 50.4004 23.8941 50.4004 23.3341C50.4004 22.7741 50.0271 22.4009 49.4672 22.4009H44.8008V19.6011H47.6006C48.1605 19.6011 48.5338 19.2278 48.5338 18.6678C48.5338 18.1079 48.1605 17.7346 47.6006 17.7346H44.8008V14.9348H49.4672C50.0271 14.9348 50.4004 14.5615 50.4004 14.0016C50.4004 13.4416 50.0271 13.0683 49.4672 13.0683H44.8008V10.2685H47.6006C48.1605 10.2685 48.5338 9.89525 48.5338 9.33529C48.5338 8.77533 48.1605 8.40205 47.6006 8.40205H44.8008V1.86844H54.1334V54.1316Z" fill="black"/>
<path d="M0.937057 37.3327C1.12375 37.3327 1.31033 37.3327 1.40373 37.2394L17.5493 27.7201C17.7156 27.6203 17.8335 27.4966 17.9093 27.3581L32.522 12.565C32.6696 12.5223 32.8282 12.4413 32.9484 12.3211L36.1215 9.05465C37.7081 7.46805 37.7081 4.66824 36.1215 3.08176L34.2549 1.21518C32.6683 -0.371411 29.8685 -0.371411 28.282 1.21518L25.0155 4.38826L25.0154 4.38837L10.0573 19.4381C9.91886 19.51 9.80436 19.6188 9.72791 19.7549C9.62051 19.8521 9.54986 19.9792 9.51497 20.1142L0.0971141 35.9328C-0.0895763 36.3061 0.0038236 36.7727 0.283804 37.0527C0.470385 37.2393 0.657076 37.3327 0.937057 37.3327ZM10.8787 21.4485C12.1829 21.9933 13.3195 22.8375 14.2306 23.8928C14.2349 23.8979 14.2393 23.903 14.2438 23.9082C14.3247 24.0023 14.403 24.0988 14.4804 24.1961C14.5054 24.2277 14.5305 24.2594 14.5552 24.2914C14.6114 24.3641 14.666 24.4382 14.7202 24.5125C14.7554 24.561 14.7909 24.6091 14.8253 24.6583C14.8677 24.7188 14.9085 24.7805 14.9497 24.842C14.9898 24.9021 15.0304 24.9618 15.0693 25.0231C15.1045 25.0784 15.138 25.135 15.1721 25.1911C15.2124 25.2571 15.2533 25.3226 15.2922 25.3899C15.3625 25.5117 15.4309 25.635 15.4962 25.7601L15.8523 26.5168L9.72517 30.1373L7.26069 27.5395L10.8787 21.4485ZM3.64357 33.693L6.35009 29.12L8.21667 30.9866L3.64357 33.693ZM17.3626 25.2935L17.1759 24.9203C16.083 22.7344 14.3353 21.0083 12.1549 19.9552L25.3887 6.62811C26.6953 8.96125 28.4685 10.7345 30.7083 11.9477L17.3626 25.2935ZM29.5884 2.52169C30.5216 1.68175 32.1082 1.68175 32.9482 2.52169L34.8147 4.38826C35.6547 5.3215 35.6547 6.90809 34.8147 7.74803L32.0634 10.4994C29.7335 9.36591 27.9626 7.61296 26.8071 5.30312L29.5884 2.52169Z" fill="black"/>
<path d="M50.4004 7.46804C51.427 7.46804 52.267 6.6281 52.267 5.60147C52.267 4.57484 51.427 3.73489 50.4004 3.73489C49.3738 3.73489 48.5338 4.57484 48.5338 5.60147C48.5338 6.6281 49.3738 7.46804 50.4004 7.46804Z" fill="black"/>
</g>
<defs>
<clipPath id="clip0_0_1">
<rect width="56" height="56" fill="white"/>
</clipPath>
</defs>
</svg>
