<svg width="106" height="79" viewBox="0 0 106 79" fill="none" xmlns="http://www.w3.org/2000/svg">
<path d="M40.2928 19.9156C40.4878 20.179 40.7438 20.3114 40.9998 20.3114C41.2558 20.3114 41.5118 20.179 41.7068 19.9156L42.6268 18.6728C43.0598 18.9605 43.5268 19.1226 43.9998 19.1226C44.4728 19.1226 44.9398 18.9605 45.3728 18.6741L46.2928 19.917C46.4878 20.179 46.7438 20.3114 46.9998 20.3114C47.2558 20.3114 47.5118 20.179 47.7068 19.9156C48.0978 19.3874 48.0978 18.5337 47.7068 18.0055L46.7868 16.7627C47.2118 15.5928 47.2118 14.223 46.7868 13.0518L47.7068 11.809C48.0978 11.2808 48.0978 10.427 47.7068 9.89885C47.3158 9.37065 46.6838 9.37065 46.2928 9.89885L45.3728 11.1417C44.5068 10.5675 43.4928 10.5675 42.6258 11.1417L41.7058 9.89885C41.3148 9.37065 40.6828 9.37065 40.2918 9.89885C39.9008 10.427 39.9008 11.2808 40.2918 11.809L41.2118 13.0518C40.7858 14.2217 40.7858 15.5914 41.2118 16.7627L40.2918 18.0055C39.9018 18.5337 39.9018 19.3874 40.2928 19.9156ZM44.7918 13.8367C45.2288 14.427 45.2288 15.3888 44.7918 15.9791C44.3538 16.5708 43.6438 16.5708 43.2058 15.9791C42.7688 15.3875 42.7688 14.4283 43.2058 13.8367C43.4248 13.5408 43.7118 13.3936 43.9988 13.3936C44.2858 13.3936 44.5738 13.5408 44.7918 13.8367Z" fill="black"/>
<path d="M24.2928 19.9156C24.4878 20.179 24.7438 20.3114 24.9998 20.3114C25.2558 20.3114 25.5118 20.179 25.7068 19.9156L26.6268 18.6728C27.0598 18.9605 27.5268 19.1226 27.9998 19.1226C28.4728 19.1226 28.9398 18.9605 29.3728 18.6741L30.2928 19.9169C30.4878 20.179 30.7438 20.3114 30.9998 20.3114C31.2558 20.3114 31.5118 20.179 31.7068 19.9156C32.0978 19.3874 32.0978 18.5336 31.7068 18.0055L30.7878 16.764C31.2138 15.5941 31.2138 14.223 30.7878 13.0531L31.7068 11.8117C32.0978 11.2835 32.0978 10.4297 31.7068 9.90155C31.3158 9.37335 30.6838 9.37335 30.2928 9.90155L29.3728 11.1444C28.5068 10.5702 27.4928 10.5702 26.6258 11.1444L25.7058 9.90155C25.3148 9.37335 24.6828 9.37335 24.2918 9.90155C23.9008 10.4297 23.9008 11.2835 24.2918 11.8117L25.2118 13.0545C24.7858 14.2244 24.7858 15.5941 25.2118 16.7654L24.2918 18.0082C23.9018 18.5336 23.9018 19.3874 24.2928 19.9156ZM28.7928 13.8367C29.2298 14.4283 29.2298 15.3875 28.7928 15.9791C28.3548 16.5708 27.6448 16.5708 27.2068 15.9791C26.7698 15.3875 26.7698 14.4283 27.2068 13.8367C27.4258 13.5408 27.7128 13.3936 27.9998 13.3936C28.2868 13.3936 28.5738 13.5408 28.7928 13.8367Z" fill="black"/>
<path d="M8.29291 19.9156C8.48791 20.179 8.74391 20.3114 8.99991 20.3114C9.25591 20.3114 9.51191 20.179 9.70691 19.9156L10.6269 18.6728C11.0599 18.9605 11.5269 19.1226 11.9999 19.1226C12.4729 19.1226 12.9399 18.9605 13.3729 18.6741L14.2929 19.9169C14.4879 20.179 14.7439 20.3114 14.9999 20.3114C15.2559 20.3114 15.5119 20.179 15.7069 19.9156C16.0979 19.3874 16.0979 18.5336 15.7069 18.0055L14.7879 16.764C15.2139 15.5941 15.2139 14.223 14.7879 13.0531L15.7069 11.8117C16.0979 11.2835 16.0979 10.4297 15.7069 9.90155C15.3159 9.37335 14.6839 9.37335 14.2929 9.90155L13.3729 11.1444C12.5069 10.5702 11.4929 10.5702 10.6259 11.1444L9.70591 9.90155C9.31491 9.37335 8.68291 9.37335 8.29191 9.90155C7.90091 10.4297 7.90091 11.2835 8.29191 11.8117L9.21191 13.0545C8.78591 14.2244 8.78591 15.5941 9.21191 16.7654L8.29191 18.0082C7.90191 18.5336 7.90191 19.3874 8.29291 19.9156ZM12.7929 13.8367C13.2299 14.4283 13.2299 15.3875 12.7929 15.9791C12.3549 16.5708 11.6449 16.5708 11.2069 15.9791C10.7699 15.3875 10.7699 14.4283 11.2069 13.8367C11.4259 13.5408 11.7129 13.3936 11.9999 13.3936C12.2869 13.3936 12.5739 13.5408 12.7929 13.8367Z" fill="black"/>
<path d="M56 20.8421C56 19.0643 55.244 17.5252 54.1333 16.6882V9.63706C54.1333 5.83892 51.7421 2.75 48.8031 2.75H7.196C4.25787 2.75 1.86667 5.84013 1.86667 9.63706V16.6882C0.756 17.5252 0 19.0643 0 20.8421V44.9649H0.933333V48.5833H6.53333V44.9649H7.46667H48.5333H49.4667V48.5833H55.0667V44.9649H56V20.8421ZM7.46667 29.2851V25.6667H48.5333V29.2851H7.46667ZM50.4 31.6974V29.2851V23.2544V20.8421C50.4 19.5117 51.2372 18.4298 52.2667 18.4298C52.3712 18.4298 52.4729 18.4479 52.5728 18.4696C52.6745 18.495 52.7791 18.5323 52.8883 18.5818L53.0348 18.6493C53.6807 19.0293 54.1333 19.8663 54.1333 20.8421V42.5526H50.4V31.6974ZM3.73333 9.63706C3.73333 7.1705 5.28733 5.16228 7.196 5.16228H48.8031C50.7127 5.16228 52.2667 7.1705 52.2667 9.63706V16.0175C50.2077 16.0175 48.5333 18.1814 48.5333 20.8421V23.2544H7.46667V20.8421C7.46667 18.1814 5.79227 16.0175 3.73333 16.0175V9.63706ZM1.86667 20.8421C1.86667 19.8663 2.31933 19.0281 2.9652 18.6493L3.1108 18.583C3.22093 18.5323 3.32547 18.4962 3.4272 18.4708C3.52707 18.4479 3.6288 18.4298 3.73333 18.4298C4.7628 18.4298 5.6 19.5117 5.6 20.8421V23.2544V29.2851V31.6974V42.5526H1.86667V20.8421ZM4.66667 46.1711H2.8V44.9649H4.66667V46.1711ZM7.46667 31.6974H27.0667V42.5526H7.46667V31.6974ZM48.5333 42.5526H28.9333V31.6974H48.5333V42.5526ZM53.2 46.1711H51.3333V44.9649H53.2V46.1711Z" fill="black"/>
<path d="M81.36 26.36V27.48H79.12V36.44H66.8V34.2H64.56V36.44H61.2C58.155 36.44 55.6 38.8725 55.6 42.04C55.6 43.4969 55.88 46.24 56.16 48.725C56.44 51.21 56.72 53.38 56.72 53.38L56.86 54.36H61.2V56.6H60.08V58.84H64.56V56.6H63.44V54.36H67.675L68.585 50.72C68.7119 50.2169 69.1537 49.88 69.67 49.88H75.585C76.67 49.88 77.6106 50.6237 77.79 51.665C77.895 52.2731 78 53.9094 78 54.99C78 56.0706 77.8994 57.5406 77.79 58.175C77.6106 59.2162 76.67 59.96 75.585 59.96H58.96C55.88 59.96 53.36 62.48 53.36 65.56V71.16C53.36 73.0019 54.8781 74.52 56.72 74.52H58.96V75.64H64.56V74.52H86.96V75.64H92.56V74.52H94.8C96.6419 74.52 98.16 73.0019 98.16 71.16V49.88H102.64V39.8H97.67C96.7994 37.8312 94.8394 36.44 92.56 36.44H90.32V31.96H88.08V36.44H85.84V27.48H83.6V26.36H81.36ZM81.36 29.72H83.6V36.44H81.36V29.72ZM61.2 38.68H62.32V48.76H64.56V38.68H92.56C94.4281 38.68 95.92 40.1719 95.92 42.04V71.16C95.92 71.7944 95.4344 72.28 94.8 72.28H56.72C56.0856 72.28 55.6 71.7944 55.6 71.16V65.56C55.6 63.6919 57.0919 62.2 58.96 62.2H75.585C77.7244 62.2 79.6231 60.695 79.995 58.56C80.1569 57.6412 80.24 56.1975 80.24 54.99C80.24 53.7825 80.1612 52.225 79.995 51.28C79.6231 49.145 77.7244 47.64 75.585 47.64H69.67C68.1344 47.64 66.7869 48.7075 66.415 50.195L65.925 52.12H58.855C58.7719 51.4681 58.6187 50.4225 58.4 48.48C58.12 46.0125 57.84 43.1731 57.84 42.04C57.84 40.0275 59.2969 38.68 61.2 38.68ZM88.08 42.04C86.2381 42.04 84.72 43.5581 84.72 45.4C84.72 47.2419 86.2381 48.76 88.08 48.76C89.9219 48.76 91.44 47.2419 91.44 45.4C91.44 43.5581 89.9219 42.04 88.08 42.04ZM98.16 42.04H100.4V47.64H98.16V42.04ZM88.08 44.28C88.71 44.28 89.2 44.77 89.2 45.4C89.2 46.03 88.71 46.52 88.08 46.52C87.45 46.52 86.96 46.03 86.96 45.4C86.96 44.77 87.45 44.28 88.08 44.28ZM88.08 53.24C85 53.24 82.48 55.76 82.48 58.84C82.48 61.92 85 64.44 88.08 64.44C91.16 64.44 93.68 61.92 93.68 58.84C93.68 55.76 91.16 53.24 88.08 53.24ZM88.08 55.48C89.9481 55.48 91.44 56.9719 91.44 58.84C91.44 60.7081 89.9481 62.2 88.08 62.2C86.2119 62.2 84.72 60.7081 84.72 58.84C84.72 56.9719 86.2119 55.48 88.08 55.48Z" fill="black"/>
</svg>
