<svg width="149" height="41" viewBox="0 0 149 41" fill="none" xmlns="http://www.w3.org/2000/svg">
<path d="M4.95801 35.4834V40H0.441406V35.4834H4.95801ZM23.9738 40.25C21.4072 40.25 19.1072 39.65 17.0738 38.45C15.0405 37.2167 13.4238 35.55 12.2238 33.45C11.0572 31.35 10.4738 28.9833 10.4738 26.35C10.4738 23.6833 11.0738 21.3 12.2738 19.2C13.5072 17.1 15.1738 15.45 17.2738 14.25C19.3738 13.0167 21.7405 12.4 24.3738 12.4C27.0072 12.4 29.3572 13.0167 31.4238 14.25C33.5238 15.45 35.1738 17.1 36.3738 19.2C37.6072 21.3 38.2405 23.6833 38.2738 26.35L36.7238 27.55C36.7238 29.95 36.1572 32.1167 35.0238 34.05C33.9238 35.95 32.4072 37.4667 30.4738 38.6C28.5738 39.7 26.4072 40.25 23.9738 40.25ZM24.3738 36.75C26.3072 36.75 28.0238 36.3 29.5238 35.4C31.0572 34.5 32.2572 33.2667 33.1238 31.7C34.0238 30.1 34.4738 28.3167 34.4738 26.35C34.4738 24.35 34.0238 22.5667 33.1238 21C32.2572 19.4333 31.0572 18.2 29.5238 17.3C28.0238 16.3667 26.3072 15.9 24.3738 15.9C22.4738 15.9 20.7572 16.3667 19.2238 17.3C17.6905 18.2 16.4738 19.4333 15.5738 21C14.6738 22.5667 14.2238 24.35 14.2238 26.35C14.2238 28.3167 14.6738 30.1 15.5738 31.7C16.4738 33.2667 17.6905 34.5 19.2238 35.4C20.7572 36.3 22.4738 36.75 24.3738 36.75ZM36.3238 40C35.7572 40 35.2905 39.8333 34.9238 39.5C34.5572 39.1333 34.3738 38.6667 34.3738 38.1V29.55L35.3238 25.6L38.2738 26.35V38.1C38.2738 38.6667 38.0905 39.1333 37.7238 39.5C37.3572 39.8333 36.8905 40 36.3238 40ZM58.2117 40.25C55.5784 40.25 53.2117 39.65 51.1117 38.45C49.0117 37.2167 47.3451 35.55 46.1117 33.45C44.9117 31.35 44.3117 28.9667 44.3117 26.3C44.3117 23.6667 44.8951 21.3 46.0617 19.2C47.2617 17.1 48.8784 15.45 50.9117 14.25C52.9451 13.0167 55.2451 12.4 57.8117 12.4C60.0451 12.4 62.0617 12.8833 63.8617 13.85C65.6617 14.7833 67.1117 16.0333 68.2117 17.6V2.9C68.2117 2.3 68.3951 1.83333 68.7617 1.5C69.1284 1.13333 69.5951 0.949999 70.1617 0.949999C70.7284 0.949999 71.1951 1.13333 71.5617 1.5C71.9284 1.83333 72.1117 2.3 72.1117 2.9V26.5C72.0451 29.1 71.3951 31.45 70.1617 33.55C68.9617 35.6167 67.3117 37.25 65.2117 38.45C63.1451 39.65 60.8117 40.25 58.2117 40.25ZM58.2117 36.75C60.1451 36.75 61.8617 36.3 63.3617 35.4C64.8951 34.4667 66.0951 33.2167 66.9617 31.65C67.8617 30.0833 68.3117 28.3 68.3117 26.3C68.3117 24.3333 67.8617 22.5667 66.9617 21C66.0951 19.4 64.8951 18.15 63.3617 17.25C61.8617 16.35 60.1451 15.9 58.2117 15.9C56.3117 15.9 54.5951 16.35 53.0617 17.25C51.5284 18.15 50.3117 19.4 49.4117 21C48.5117 22.5667 48.0617 24.3333 48.0617 26.3C48.0617 28.3 48.5117 30.0833 49.4117 31.65C50.3117 33.2167 51.5284 34.4667 53.0617 35.4C54.5951 36.3 56.3117 36.75 58.2117 36.75ZM93.5133 40.25C90.8133 40.25 88.4133 39.6667 86.3133 38.5C84.2466 37.3 82.6133 35.65 81.4133 33.55C80.2466 31.45 79.6633 29.05 79.6633 26.35C79.6633 23.6167 80.2133 21.2167 81.3133 19.15C82.4466 17.05 83.9966 15.4 85.9633 14.2C87.9299 13 90.1966 12.4 92.7633 12.4C95.2966 12.4 97.4966 12.9833 99.3633 14.15C101.263 15.2833 102.73 16.8667 103.763 18.9C104.797 20.9333 105.313 23.25 105.313 25.85C105.313 26.3833 105.147 26.8167 104.813 27.15C104.48 27.45 104.047 27.6 103.513 27.6H82.2633V24.4H103.913L101.763 25.95C101.797 24.0167 101.447 22.2833 100.713 20.75C99.9799 19.2167 98.9299 18.0167 97.5633 17.15C96.2299 16.2833 94.6299 15.85 92.7633 15.85C90.8633 15.85 89.1966 16.3 87.7633 17.2C86.3299 18.1 85.2133 19.35 84.4133 20.95C83.6466 22.5167 83.2633 24.3167 83.2633 26.35C83.2633 28.3833 83.6966 30.1833 84.5633 31.75C85.4633 33.3167 86.6799 34.55 88.2133 35.45C89.7466 36.35 91.5133 36.8 93.5133 36.8C94.7133 36.8 95.9133 36.6 97.1133 36.2C98.3466 35.7667 99.3299 35.2333 100.063 34.6C100.43 34.3 100.847 34.15 101.313 34.15C101.78 34.1167 102.18 34.2333 102.513 34.5C102.947 34.9 103.163 35.3333 103.163 35.8C103.197 36.2667 103.013 36.6667 102.613 37C101.513 37.9333 100.113 38.7167 98.4133 39.35C96.7133 39.95 95.0799 40.25 93.5133 40.25ZM117.726 40C116.393 40 115.193 39.6333 114.126 38.9C113.093 38.1667 112.276 37.15 111.676 35.85C111.11 34.55 110.826 33.05 110.826 31.35V2.85C110.826 2.28333 110.993 1.83333 111.326 1.5C111.693 1.13333 112.16 0.949999 112.726 0.949999C113.293 0.949999 113.743 1.13333 114.076 1.5C114.443 1.83333 114.626 2.28333 114.626 2.85V31.35C114.626 32.7833 114.91 33.95 115.476 34.85C116.076 35.75 116.826 36.2 117.726 36.2H118.976C119.476 36.2 119.876 36.3833 120.176 36.75C120.476 37.0833 120.626 37.5333 120.626 38.1C120.626 38.6667 120.41 39.1333 119.976 39.5C119.576 39.8333 119.043 40 118.376 40H117.726ZM136.824 40.25C134.124 40.25 131.724 39.6667 129.624 38.5C127.557 37.3 125.924 35.65 124.724 33.55C123.557 31.45 122.974 29.05 122.974 26.35C122.974 23.6167 123.524 21.2167 124.624 19.15C125.757 17.05 127.307 15.4 129.274 14.2C131.24 13 133.507 12.4 136.074 12.4C138.607 12.4 140.807 12.9833 142.674 14.15C144.574 15.2833 146.04 16.8667 147.074 18.9C148.107 20.9333 148.624 23.25 148.624 25.85C148.624 26.3833 148.457 26.8167 148.124 27.15C147.79 27.45 147.357 27.6 146.824 27.6H125.574V24.4H147.224L145.074 25.95C145.107 24.0167 144.757 22.2833 144.024 20.75C143.29 19.2167 142.24 18.0167 140.874 17.15C139.54 16.2833 137.94 15.85 136.074 15.85C134.174 15.85 132.507 16.3 131.074 17.2C129.64 18.1 128.524 19.35 127.724 20.95C126.957 22.5167 126.574 24.3167 126.574 26.35C126.574 28.3833 127.007 30.1833 127.874 31.75C128.774 33.3167 129.99 34.55 131.524 35.45C133.057 36.35 134.824 36.8 136.824 36.8C138.024 36.8 139.224 36.6 140.424 36.2C141.657 35.7667 142.64 35.2333 143.374 34.6C143.74 34.3 144.157 34.15 144.624 34.15C145.09 34.1167 145.49 34.2333 145.824 34.5C146.257 34.9 146.474 35.3333 146.474 35.8C146.507 36.2667 146.324 36.6667 145.924 37C144.824 37.9333 143.424 38.7167 141.724 39.35C140.024 39.95 138.39 40.25 136.824 40.25Z" fill="url(#paint0_linear_25_3)"/>
<defs>
<linearGradient id="paint0_linear_25_3" x1="-11.5625" y1="29.5" x2="167.467" y2="27.8067" gradientUnits="userSpaceOnUse">
<stop stop-color="#9155B1"/>
<stop offset="0.5" stop-color="#AE7AD9" stop-opacity="0.84"/>
<stop offset="0.541567" stop-color="#C493EC"/>
<stop offset="1" stop-color="#C0ADDD"/>
</linearGradient>
</defs>
</svg>
