<svg width="15" height="29" viewBox="0 0 15 29" fill="none" xmlns="http://www.w3.org/2000/svg">
<path d="M12.755 0H2.62001C1.48401 0 0.562012 0.92 0.562012 2.058V26.443C0.562012 27.579 1.48201 28.501 2.62001 28.501H12.755C13.891 28.501 14.813 27.581 14.813 26.444V2.058C14.813 1.51218 14.5962 0.988724 14.2102 0.602774C13.8243 0.216824 13.3008 0 12.755 0ZM6.66001 2.264H8.71601C8.81601 2.264 8.89901 2.344 8.89901 2.444C8.89901 2.544 8.81601 2.624 8.71501 2.624H6.66001C6.56001 2.624 6.47801 2.544 6.47801 2.444C6.47801 2.344 6.55801 2.264 6.65801 2.264H6.66001ZM5.22501 2.058C5.32049 2.058 5.41206 2.09593 5.47957 2.16344C5.54708 2.23095 5.58501 2.32252 5.58501 2.418C5.58501 2.51348 5.54708 2.60505 5.47957 2.67256C5.41206 2.74007 5.32049 2.778 5.22501 2.778C5.12953 2.778 5.03797 2.74007 4.97045 2.67256C4.90294 2.60505 4.86501 2.51348 4.86501 2.418C4.86501 2.32252 4.90294 2.23095 4.97045 2.16344C5.03797 2.09593 5.12953 2.058 5.22501 2.058ZM7.68801 27.473C7.49891 27.473 7.31166 27.4358 7.13695 27.3634C6.96224 27.291 6.80349 27.1849 6.66978 27.0512C6.53606 26.9175 6.42999 26.7588 6.35763 26.5841C6.28526 26.4094 6.24801 26.2221 6.24801 26.033C6.24801 25.8439 6.28526 25.6566 6.35763 25.4819C6.42999 25.3072 6.53606 25.1485 6.66978 25.0148C6.80349 24.8811 6.96224 24.775 7.13695 24.7026C7.31166 24.6302 7.49891 24.593 7.68801 24.593C8.06992 24.593 8.43619 24.7447 8.70625 25.0148C8.9763 25.2848 9.12801 25.6511 9.12801 26.033C9.12801 26.4149 8.9763 26.7812 8.70625 27.0512C8.43619 27.3213 8.06992 27.473 7.68801 27.473ZM14.041 23.355C14.041 23.4369 14.0086 23.5154 13.9509 23.5735C13.8932 23.6316 13.8149 23.6645 13.733 23.665H1.64201C1.56014 23.6645 1.4818 23.6316 1.4241 23.5735C1.3664 23.5154 1.33401 23.4369 1.33401 23.355V5.042C1.33401 4.872 1.47201 4.732 1.64201 4.732H13.732C13.902 4.732 14.042 4.872 14.042 5.042L14.041 23.355Z" fill="#10002B"/>
</svg>
