<svg width="102" height="80" viewBox="0 0 102 80" fill="none" xmlns="http://www.w3.org/2000/svg">
<path d="M52.7284 53.3274H50.9353V23.6325C50.9353 23.6325 50.9353 23.5506 50.9353 23.5199C50.9404 23.4517 50.9404 23.3832 50.9353 23.3151C50.9168 23.2511 50.8928 23.1893 50.8636 23.1307L50.765 22.9772C50.7269 22.9218 50.6815 22.8734 50.6305 22.8338C50.6305 22.8338 50.5857 22.7724 50.5498 22.7519L28.136 7.39246C27.9997 7.30259 27.8451 7.25528 27.6878 7.25528C27.5304 7.25528 27.3758 7.30259 27.2395 7.39246L4.82569 22.7519C4.82569 22.7519 4.7719 22.8133 4.745 22.8338C4.69399 22.8734 4.64863 22.9218 4.61052 22.9772C4.57262 23.0276 4.53956 23.0825 4.5119 23.141C4.48095 23.1949 4.4568 23.2535 4.44017 23.3151C4.4351 23.3832 4.4351 23.4517 4.44017 23.5199L4.31466 23.6325V53.3274H2.52155C2.28377 53.3274 2.05573 53.4352 1.88759 53.6273C1.71946 53.8193 1.625 54.0797 1.625 54.3513C1.625 54.6229 1.71946 54.8833 1.88759 55.0754C2.05573 55.2674 2.28377 55.3753 2.52155 55.3753H52.7284C52.9662 55.3753 53.1943 55.2674 53.3624 55.0754C53.5305 54.8833 53.625 54.6229 53.625 54.3513C53.625 54.0797 53.5305 53.8193 53.3624 53.6273C53.1943 53.4352 52.9662 53.3274 52.7284 53.3274ZM12.3836 53.3274V30.8002H42.8664V53.3274H12.3836ZM44.6595 53.3274V29.7763C44.6595 29.5047 44.565 29.2442 44.3969 29.0522C44.2288 28.8602 44.0007 28.7523 43.7629 28.7523H11.4871C11.2493 28.7523 11.0212 28.8602 10.8531 29.0522C10.685 29.2442 10.5905 29.5047 10.5905 29.7763V53.3274H6.10776V24.2161L27.625 9.47111L49.1422 24.2161V53.3274H44.6595Z" fill="black"/>
<path d="M30.3147 24.6565H24.9354C24.6976 24.6565 24.4695 24.7644 24.3014 24.9564C24.1333 25.1484 24.0388 25.4089 24.0388 25.6805C24.0388 25.952 24.1333 26.2125 24.3014 26.4045C24.4695 26.5966 24.6976 26.7044 24.9354 26.7044H30.3147C30.5525 26.7044 30.7805 26.5966 30.9486 26.4045C31.1168 26.2125 31.2112 25.952 31.2112 25.6805C31.2112 25.4089 31.1168 25.1484 30.9486 24.9564C30.7805 24.7644 30.5525 24.6565 30.3147 24.6565Z" fill="black"/>
<path d="M35.694 34.896H19.556C19.3183 34.896 19.0902 35.0039 18.9221 35.1959C18.7539 35.3879 18.6595 35.6484 18.6595 35.92C18.6595 36.1915 18.7539 36.452 18.9221 36.644C19.0902 36.836 19.3183 36.9439 19.556 36.9439H35.694C35.9317 36.9439 36.1598 36.836 36.3279 36.644C36.4961 36.452 36.5905 36.1915 36.5905 35.92C36.5905 35.6484 36.4961 35.3879 36.3279 35.1959C36.1598 35.0039 35.9317 34.896 35.694 34.896Z" fill="black"/>
<path d="M35.694 41.0398H19.556C19.3183 41.0398 19.0902 41.1477 18.9221 41.3397C18.7539 41.5317 18.6595 41.7922 18.6595 42.0638C18.6595 42.3353 18.7539 42.5958 18.9221 42.7878C19.0902 42.9798 19.3183 43.0877 19.556 43.0877H35.694C35.9317 43.0877 36.1598 42.9798 36.3279 42.7878C36.4961 42.5958 36.5905 42.3353 36.5905 42.0638C36.5905 41.7922 36.4961 41.5317 36.3279 41.3397C36.1598 41.1477 35.9317 41.0398 35.694 41.0398Z" fill="black"/>
<path d="M35.694 47.1836H19.556C19.3183 47.1836 19.0902 47.2915 18.9221 47.4835C18.7539 47.6756 18.6595 47.936 18.6595 48.2076C18.6595 48.4792 18.7539 48.7396 18.9221 48.9316C19.0902 49.1237 19.3183 49.2315 19.556 49.2315H35.694C35.9317 49.2315 36.1598 49.1237 36.3279 48.9316C36.4961 48.7396 36.5905 48.4792 36.5905 48.2076C36.5905 47.936 36.4961 47.6756 36.3279 47.4835C36.1598 47.2915 35.9317 47.1836 35.694 47.1836Z" fill="black"/>
<g clip-path="url(#clip0_0_1)">
<path d="M72 80H56C55.4696 80 54.9609 79.7893 54.5858 79.4142C54.2107 79.0392 54 78.5304 54 78C54 77.4696 54.2107 76.9609 54.5858 76.5858C54.9609 76.2107 55.4696 76 56 76H72C72.5304 76 73.0391 76.2107 73.4142 76.5858C73.7893 76.9609 74 77.4696 74 78C74 78.5304 73.7893 79.0392 73.4142 79.4142C73.0391 79.7893 72.5304 80 72 80ZM68 72H56C55.4696 72 54.9609 71.7893 54.5858 71.4142C54.2107 71.0392 54 70.5304 54 70C54 69.4696 54.2107 68.9609 54.5858 68.5858C54.9609 68.2107 55.4696 68 56 68H68C68.5304 68 69.0391 68.2107 69.4142 68.5858C69.7893 68.9609 70 69.4696 70 70C70 70.5304 69.7893 71.0392 69.4142 71.4142C69.0391 71.7893 68.5304 72 68 72ZM64 64H56C55.4696 64 54.9609 63.7893 54.5858 63.4142C54.2107 63.0392 54 62.5304 54 62C54 61.4696 54.2107 60.9609 54.5858 60.5858C54.9609 60.2107 55.4696 60 56 60H64C64.5304 60 65.0391 60.2107 65.4142 60.5858C65.7893 60.9609 66 61.4696 66 62C66 62.5304 65.7893 63.0392 65.4142 63.4142C65.0391 63.7893 64.5304 64 64 64ZM80 79.91C79.4696 79.9336 78.9515 79.7455 78.5597 79.3872C78.168 79.0288 77.9346 78.5294 77.911 77.999C77.8874 77.4686 78.0755 76.9505 78.4339 76.5587C78.7922 76.167 79.2916 75.9336 79.822 75.91C83.6069 75.5637 87.2148 74.1461 90.2231 71.8232C93.2313 69.5003 95.5154 66.3683 96.8078 62.7941C98.1002 59.2198 98.3475 55.3513 97.5205 51.6416C96.6935 47.932 94.8267 44.5347 92.1385 41.8478C89.4504 39.1609 86.0523 37.2956 82.3422 36.4704C78.6322 35.6451 74.7638 35.8941 71.1901 37.1881C67.6165 38.4822 64.4856 40.7677 62.164 43.7771C59.8425 46.7864 58.4266 50.3949 58.082 54.18C58.0584 54.4416 57.9834 54.696 57.8615 54.9286C57.7395 55.1613 57.573 55.3676 57.3713 55.5358C57.1696 55.7041 56.9367 55.831 56.686 55.9093C56.4353 55.9875 56.1716 56.0156 55.91 55.992C55.6484 55.9684 55.394 55.8934 55.1614 55.7715C54.9288 55.6495 54.7224 55.483 54.5542 55.2813C54.3859 55.0796 54.259 54.8467 54.1807 54.596C54.1025 54.3453 54.0744 54.0816 54.098 53.82C54.6558 47.6666 57.5652 41.9654 62.2207 37.9031C66.8761 33.8409 72.9189 31.7305 79.0911 32.0114C85.2633 32.2923 91.0894 34.9428 95.3567 39.4112C99.6239 43.8795 102.003 49.8214 102 56C102.031 61.9967 99.8029 67.7852 95.7598 72.214C91.7167 76.6429 86.1547 79.3875 80.18 79.902C80.12 79.908 80.058 79.91 80 79.91ZM78 44C77.4696 44 76.9609 44.2107 76.5858 44.5858C76.2107 44.9609 76 45.4696 76 46V56C76.0001 56.5304 76.2109 57.039 76.586 57.414L82.586 63.414C82.9632 63.7783 83.4684 63.9799 83.9928 63.9754C84.5172 63.9708 85.0188 63.7605 85.3896 63.3896C85.7605 63.0188 85.9708 62.5172 85.9753 61.9928C85.9799 61.4684 85.7783 60.9632 85.414 60.586L80 55.172V46C80 45.4696 79.7893 44.9609 79.4142 44.5858C79.0391 44.2107 78.5304 44 78 44Z" fill="black"/>
</g>
<defs>
<clipPath id="clip0_0_1">
<rect width="48" height="48" fill="white" transform="translate(54 32)"/>
</clipPath>
</defs>
</svg>
